<svg width="145" height="46" viewBox="0 0 145 46" fill="none" xmlns="http://www.w3.org/2000/svg">
<path d="M54.39 18.1678C98.5387 26.3871 211.739 10.6777 91.018 38.5684C-29.681 66.4789 -17.9774 4.68558 54.39 18.1678Z" fill="url(#paint0_linear_33_7)"/>
<g filter="url(#filter0_d_33_7)">
<path d="M8.93949 20.3332H10.0895V9.98322H8.93949V6.21122H19.0365C21.0145 6.21122 22.5248 6.64056 23.5675 7.49922C24.6102 8.34256 25.1315 9.71489 25.1315 11.6162C25.1315 13.5176 24.6102 14.8976 23.5675 15.7562C22.5248 16.5996 21.0145 17.0212 19.0365 17.0212H16.5295V20.3332H18.7375V24.1052H8.93949V20.3332ZM17.3115 13.7552C18.2008 13.7552 18.6455 13.2646 18.6455 12.2832V11.4552C18.6455 10.9492 18.5305 10.5812 18.3005 10.3512C18.0858 10.1059 17.7562 9.98322 17.3115 9.98322H16.5295V13.7552H17.3115ZM25.92 20.3332H27.07V9.98322H25.92V6.21122H36.477C38.455 6.21122 39.9653 6.61756 41.008 7.43022C42.0506 8.24289 42.572 9.56156 42.572 11.3862C42.572 12.4136 42.365 13.3029 41.951 14.0542C41.537 14.8056 40.9466 15.3269 40.18 15.6182L40.203 15.8482C41.675 16.0782 42.411 16.9829 42.411 18.5622V20.3332H43.492V24.1052H36.201V18.7002C36.201 18.1022 36.109 17.6499 35.925 17.3432C35.7563 17.0366 35.4803 16.8296 35.097 16.7222C34.729 16.6149 34.2 16.5612 33.51 16.5612V20.3332H35.028V24.1052H25.92V20.3332ZM34.752 13.7552C35.1966 13.7552 35.5263 13.6402 35.741 13.4102C35.971 13.1649 36.086 12.7892 36.086 12.2832V11.4552C36.086 10.9492 35.971 10.5812 35.741 10.3512C35.5263 10.1059 35.1966 9.98322 34.752 9.98322H33.51V13.7552H34.752ZM52.9635 24.4272C50.1575 24.4272 47.9878 23.6912 46.4545 22.2192C44.9365 20.7472 44.1775 18.3936 44.1775 15.1582C44.1775 11.9229 44.9365 9.56922 46.4545 8.09722C47.9878 6.62522 50.1575 5.88922 52.9635 5.88922C55.7695 5.88922 57.9315 6.62522 59.4495 8.09722C60.9828 9.56922 61.7495 11.9229 61.7495 15.1582C61.7495 18.3936 60.9828 20.7472 59.4495 22.2192C57.9315 23.6912 55.7695 24.4272 52.9635 24.4272ZM52.9635 20.3332C53.4848 20.3332 53.8758 20.1952 54.1365 19.9192C54.3971 19.6432 54.5275 19.2139 54.5275 18.6312V11.6852C54.5275 11.1026 54.3971 10.6732 54.1365 10.3972C53.8758 10.1212 53.4848 9.98322 52.9635 9.98322C52.4421 9.98322 52.0511 10.1212 51.7905 10.3972C51.5298 10.6732 51.3995 11.1026 51.3995 11.6852V18.6312C51.3995 19.2292 51.5298 19.6662 51.7905 19.9422C52.0511 20.2029 52.4421 20.3332 52.9635 20.3332ZM79.7583 20.3332H80.9083V24.1052H74.6293L71.1793 16.9752L70.1213 17.8492V20.3332H71.2253V24.1052H62.5313V20.3332H63.6813V9.98322H62.5313V6.21122H71.2253V9.98322H70.1213V13.0192L73.6863 9.98322H72.2373V6.21122H80.7933V9.98322H79.6433L75.8023 13.1572L79.7583 20.3332ZM81.7354 24.1052V20.3332H82.8854V9.98322H81.7354V6.21122H97.2604V13.1572H92.1084V9.98322H89.3254V13.6172H91.3494V16.2392H89.3254V20.3332H92.1084V16.6992H97.2604V24.1052H81.7354ZM108.183 6.21122H115.244V9.98322H114.324L109.885 17.9412V20.3332H111.035V24.1052H102.295V20.3332H103.445V17.9412L98.8679 9.98322H97.9479V6.21122H106.849V9.98322H106.044L107.401 13.5482H107.631L108.988 9.98322H108.183V6.21122ZM123.118 24.4272C121.646 24.4272 120.251 24.3046 118.932 24.0592C117.629 23.7986 116.625 23.5072 115.919 23.1852V18.6312H120.979C120.979 19.1066 121.087 19.4516 121.301 19.6662C121.516 19.8809 121.907 19.9882 122.474 19.9882C122.95 19.9882 123.287 19.9192 123.486 19.7812C123.701 19.6279 123.808 19.4056 123.808 19.1142C123.808 18.8689 123.709 18.6619 123.509 18.4932C123.31 18.3092 122.965 18.1252 122.474 17.9412L120.496 17.2512C118.794 16.6072 117.568 15.8482 116.816 14.9742C116.08 14.1002 115.712 12.9196 115.712 11.4322C115.712 9.62289 116.303 8.25056 117.483 7.31522C118.679 6.36456 120.665 5.88922 123.44 5.88922C124.774 5.88922 126.024 6.02722 127.189 6.30322C128.37 6.56389 129.321 6.91656 130.041 7.36122V11.4782H125.441C125.441 10.7116 124.966 10.3282 124.015 10.3282C123.555 10.3282 123.226 10.3896 123.026 10.5122C122.842 10.6196 122.75 10.8189 122.75 11.1102C122.75 11.3709 122.858 11.5779 123.072 11.7312C123.302 11.8846 123.67 12.0456 124.176 12.2142L126.177 12.9042C127.803 13.4562 128.983 14.1769 129.719 15.0662C130.471 15.9402 130.846 17.0902 130.846 18.5162C130.846 20.4636 130.187 21.9356 128.868 22.9322C127.565 23.9289 125.648 24.4272 123.118 24.4272Z" fill="white"/>
</g>
<defs>
<filter id="filter0_d_33_7" x="4.93945" y="5.88928" width="129.907" height="26.538" filterUnits="userSpaceOnUse" color-interpolation-filters="sRGB">
<feFlood flood-opacity="0" result="BackgroundImageFix"/>
<feColorMatrix in="SourceAlpha" type="matrix" values="0 0 0 0 0 0 0 0 0 0 0 0 0 0 0 0 0 0 127 0" result="hardAlpha"/>
<feOffset dy="4"/>
<feGaussianBlur stdDeviation="2"/>
<feComposite in2="hardAlpha" operator="out"/>
<feColorMatrix type="matrix" values="0 0 0 0 0 0 0 0 0 0 0 0 0 0 0 0 0 0 0.25 0"/>
<feBlend mode="normal" in2="BackgroundImageFix" result="effect1_dropShadow_33_7"/>
<feBlend mode="normal" in="SourceGraphic" in2="effect1_dropShadow_33_7" result="shape"/>
</filter>
<linearGradient id="paint0_linear_33_7" x1="-81.1769" y1="19.4292" x2="62.8888" y2="47.3506" gradientUnits="userSpaceOnUse">
<stop stop-color="#20E986"/>
<stop offset="1" stop-color="#28AC6B"/>
</linearGradient>
</defs>
</svg>
